{
  "accessors": [
    {
      "bufferView": 2,
      "componentType": 5126,
      "count": 14299,
      "max": [
        0.4445349872112274,
        0.7375209927558899,
        -0.10683199763298035
      ],
      "min": [
        -0.41161900758743286,
        -0.9714769721031189,
        -1.050510048866272
      ],
      "type": "VEC3"
    },
    {
      "bufferView": 2,
      "byteOffset": 171588,
      "componentType": 5126,
      "count": 14299,
      "max": [
        1.0,
        1.0,
        1.0
      ],
      "min": [
        -1.0,
        -1.0,
        -1.0
      ],
      "type": "VEC3"
    },
    {
      "bufferView": 1,
      "componentType": 5126,
      "count": 14299,
      "max": [
        1.6172970533370972,
        2.832590103149414
      ],
      "min": [
        -0.006316999904811382,
        -0.0031659998930990696
      ],
      "type": "VEC2"
    },
    {
      "bufferView": 0,
      "componentType": 5125,
      "count": 23049,
      "type": "SCALAR"
    },
    {
      "bufferView": 2,
      "byteOffset": 343176,
      "componentType": 5126,
      "count": 2304,
      "max": [
        0.05987299978733063,
        1.0569430589675903,
        -0.005053999833762646
      ],
      "min": [
        -0.053373999893665314,
        0.34642499685287476,
        -0.7155719995498657
      ],
      "type": "VEC3"
    },
    {
      "bufferView": 2,
      "byteOffset": 370824,
      "componentType": 5126,
      "count": 2304,
      "max": [
        0.9906435608863831,
        0.9460334181785583,
        0.9460341334342957
      ],
      "min": [
        -0.9906429648399353,
        -0.9460338354110718,
        -0.9460343718528748
      ],
      "type": "VEC3"
    },
    {
      "bufferView": 1,
      "byteOffset": 114392,
      "componentType": 5126,
      "count": 2304,
      "max": [
        1.013672947883606,
        0.36744099855422974
      ],
      "min": [
        0.11714500188827515,
        -0.005898000206798315
      ],
      "type": "VEC2"
    },
    {
      "bufferView": 0,
      "byteOffset": 92196,
      "componentType": 5125,
      "count": 3456,
      "type": "SCALAR"
    },
    {
      "bufferView": 2,
      "byteOffset": 398472,
      "componentType": 5126,
      "count": 2304,
      "max": [
        0.05987299978733063,
        -0.5196639895439148,
        9.999999747378752e-06
      ],
      "min": [
        -0.053373999893665314,
        -1.2301820516586304,
        -0.7105090022087097
      ],
      "type": "VEC3"
    },
    {
      "bufferView": 2,
      "byteOffset": 426120,
      "componentType": 5126,
      "count": 2304,
      "max": [
        0.9906436204910278,
        0.9460344314575195,
        0.9460338354110718
      ],
      "min": [
        -0.9906429648399353,
        -0.9460332989692688,
        -0.9460342526435852
      ],
      "type": "VEC3"
    },
    {
      "bufferView": 1,
      "byteOffset": 132824,
      "componentType": 5126,
      "count": 2304,
      "max": [
        1.013672947883606,
        0.36744099855422974
      ],
      "min": [
        0.11714500188827515,
        -0.005898000206798315
      ],
      "type": "VEC2"
    },
    {
      "bufferView": 0,
      "byteOffset": 106020,
      "componentType": 5125,
      "count": 3456,
      "type": "SCALAR"
    },
    {
      "bufferView": 2,
      "byteOffset": 453768,
      "componentType": 5126,
      "count": 4758,
      "max": [
        0.4053260087966919,
        0.2041819989681244,
        -0.8774589896202087
      ],
      "min": [
        -0.3330009877681732,
        -0.4717809855937958,
        -1.536041021347046
      ],
      "type": "VEC3"
    },
    {
      "bufferView": 2,
      "byteOffset": 510864,
      "componentType": 5126,
      "count": 4758,
      "max": [
        0.9993536472320557,
        0.999995768070221,
        0.9996827244758606
      ],
      "min": [
        -0.9998646378517151,
        -0.999728798866272,
        -0.9908918142318726
      ],
      "type": "VEC3"
    },
    {
      "bufferView": 1,
      "byteOffset": 151256,
      "componentType": 5126,
      "count": 4758,
      "max": [
        1.0001189708709717,
        0.9887999892234802
      ],
      "min": [
        0.0,
        0.0
      ],
      "type": "VEC2"
    },
    {
      "bufferView": 0,
      "byteOffset": 119844,
      "componentType": 5125,
      "count": 23850,
      "type": "SCALAR"
    },
    {
      "bufferView": 2,
      "byteOffset": 567960,
      "componentType": 5126,
      "count": 4950,
      "max": [
        0.2812739908695221,
        -0.036288999021053314,
        -0.20694799721240997
      ],
      "min": [
        -0.2719320058822632,
        -0.47823598980903625,
        -1.6117310523986816
      ],
      "type": "VEC3"
    },
    {
      "bufferView": 2,
      "byteOffset": 627360,
      "componentType": 5126,
      "count": 4950,
      "max": [
        0.999859631061554,
        0.9997528195381165,
        0.9995041489601135
      ],
      "min": [
        -0.999879777431488,
        -0.9991413354873657,
        -0.9997916221618652
      ],
      "type": "VEC3"
    },
    {
      "bufferView": 1,
      "byteOffset": 189320,
      "componentType": 5126,
      "count": 4950,
      "max": [
        0.990444004535675,
        0.9293930530548096
      ],
      "min": [
        0.0,
        0.0
      ],
      "type": "VEC2"
    },
    {
      "bufferView": 0,
      "byteOffset": 215244,
      "componentType": 5125,
      "count": 20445,
      "type": "SCALAR"
    }
  ],
  "asset": {
    "extras": {
      "author": "novusod (https://sketchfab.com/novusod)",
      "license": "CC-BY-4.0 (http://creativecommons.org/licenses/by/4.0/)",
      "source": "https://sketchfab.com/3d-models/low-poly-female-biker-a21466adce4b4165b07416ddbd568f00",
      "title": "Low Poly Female Biker"
    },
    "generator": "Sketchfab-13.40.0",
    "version": "2.0"
  },
  "bufferViews": [
    {
      "buffer": 0,
      "byteLength": 297024,
      "name": "floatBufferViews",
      "target": 34963
    },
    {
      "buffer": 0,
      "byteLength": 228920,
      "byteOffset": 297024,
      "byteStride": 8,
      "name": "floatBufferViews",
      "target": 34962
    },
    {
      "buffer": 0,
      "byteLength": 686760,
      "byteOffset": 525944,
      "byteStride": 12,
      "name": "floatBufferViews",
      "target": 34962
    }
  ],
  "buffers": [
    {
      "byteLength": 1212704,
      "uri": "scene.bin"
    }
  ],
  "images": [
    {
      "uri": "textures/Material.004_baseColor.png"
    },
    {
      "uri": "textures/Material.005_baseColor.png"
    },
    {
      "uri": "textures/Material.001_baseColor.png"
    }
  ],
  "materials": [
    {
      "doubleSided": true,
      "name": "Material.004",
      "pbrMetallicRoughness": {
        "baseColorTexture": {
          "index": 0
        },
        "metallicFactor": 0.0,
        "roughnessFactor": 0.5
      }
    },
    {
      "doubleSided": true,
      "name": "Material.002",
      "pbrMetallicRoughness": {
        "baseColorTexture": {
          "index": 0
        },
        "metallicFactor": 0.0,
        "roughnessFactor": 0.5
      }
    },
    {
      "doubleSided": true,
      "name": "Material.005",
      "pbrMetallicRoughness": {
        "baseColorTexture": {
          "index": 1
        },
        "metallicFactor": 0.0,
        "roughnessFactor": 0.5
      }
    },
    {
      "doubleSided": true,
      "name": "Material.001",
      "pbrMetallicRoughness": {
        "baseColorTexture": {
          "index": 2
        },
        "metallicFactor": 0.0,
        "roughnessFactor": 0.4
      }
    }
  ],
  "meshes": [
    {
      "name": "Object_0",
      "primitives": [
        {
          "attributes": {
            "NORMAL": 1,
            "POSITION": 0,
            "TEXCOORD_0": 2
          },
          "indices": 3,
          "material": 0,
          "mode": 4
        }
      ]
    },
    {
      "name": "Object_1",
      "primitives": [
        {
          "attributes": {
            "NORMAL": 5,
            "POSITION": 4,
            "TEXCOORD_0": 6
          },
          "indices": 7,
          "material": 1,
          "mode": 4
        }
      ]
    },
    {
      "name": "Object_2",
      "primitives": [
        {
          "attributes": {
            "NORMAL": 9,
            "POSITION": 8,
            "TEXCOORD_0": 10
          },
          "indices": 11,
          "material": 1,
          "mode": 4
        }
      ]
    },
    {
      "name": "Object_3",
      "primitives": [
        {
          "attributes": {
            "NORMAL": 13,
            "POSITION": 12,
            "TEXCOORD_0": 14
          },
          "indices": 15,
          "material": 2,
          "mode": 4
        }
      ]
    },
    {
      "name": "Object_4",
      "primitives": [
        {
          "attributes": {
            "NORMAL": 17,
            "POSITION": 16,
            "TEXCOORD_0": 18
          },
          "indices": 19,
          "material": 3,
          "mode": 4
        }
      ]
    }
  ],
  "nodes": [
    {
      "children": [
        1
      ],
      "matrix": [
        1.0,
        0.0,
        0.0,
        0.0,
        0.0,
        2.220446049250313e-16,
        -1.0,
        0.0,
        0.0,
        1.0,
        2.220446049250313e-16,
        0.0,
        0.0,
        0.0,
        0.0,
        1.0
      ],
      "name": "Sketchfab_model"
    },
    {
      "children": [
        2
      ],
      "name": "root"
    },
    {
      "children": [
        3,
        5,
        7,
        9,
        11
      ],
      "matrix": [
        1.0,
        0.0,
        0.0,
        0.0,
        0.0,
        2.220446049250313e-16,
        1.0,
        0.0,
        0.0,
        -1.0,
        2.220446049250313e-16,
        0.0,
        0.0,
        0.0,
        0.0,
        1.0
      ],
      "name": "GLTF_SceneRootNode"
    },
    {
      "children": [
        4
      ],
      "matrix": [
        1.0,
        0.0,
        0.0,
        0.0,
        0.0,
        -1.685873969314855e-07,
        0.9999999999999858,
        0.0,
        0.0,
        -0.9999999999999858,
        -1.685873969314855e-07,
        0.0,
        0.0,
        0.0,
        0.0,
        1.0
      ],
      "name": "Frame_0"
    },
    {
      "mesh": 0,
      "name": "Object_4"
    },
    {
      "children": [
        6
      ],
      "matrix": [
        1.0,
        0.0,
        0.0,
        0.0,
        0.0,
        -1.685873969314855e-07,
        0.9999999999999858,
        0.0,
        0.0,
        -0.9999999999999858,
        -1.685873969314855e-07,
        0.0,
        0.0,
        0.0,
        0.0,
        1.0
      ],
      "name": "tireShape1_1"
    },
    {
      "mesh": 1,
      "name": "Object_6"
    },
    {
      "children": [
        8
      ],
      "matrix": [
        1.0,
        0.0,
        0.0,
        0.0,
        0.0,
        -1.685873969314855e-07,
        0.9999999999999858,
        0.0,
        0.0,
        -0.9999999999999858,
        -1.685873969314855e-07,
        0.0,
        0.0,
        0.0,
        0.0,
        1.0
      ],
      "name": "tireShape2_2"
    },
    {
      "mesh": 2,
      "name": "Object_8"
    },
    {
      "children": [
        10
      ],
      "matrix": [
        1.0,
        0.0,
        0.0,
        0.0,
        0.0,
        -1.685873969314855e-07,
        0.9999999999999858,
        0.0,
        0.0,
        -0.9999999999999858,
        -1.685873969314855e-07,
        0.0,
        0.0,
        0.0,
        0.0,
        1.0
      ],
      "name": "Body_3"
    },
    {
      "mesh": 3,
      "name": "Object_10"
    },
    {
      "children": [
        12
      ],
      "matrix": [
        1.0,
        0.0,
        0.0,
        0.0,
        0.0,
        -1.685873969314855e-07,
        0.9999999999999858,
        0.0,
        0.0,
        -0.9999999999999858,
        -1.685873969314855e-07,
        0.0,
        0.0,
        0.0,
        0.0,
        1.0
      ],
      "name": "Shirt_4"
    },
    {
      "mesh": 4,
      "name": "Object_12"
    }
  ],
  "samplers": [
    {
      "magFilter": 9729,
      "minFilter": 9987,
      "wrapS": 10497,
      "wrapT": 10497
    }
  ],
  "scene": 0,
  "scenes": [
    {
      "name": "Sketchfab_Scene",
      "nodes": [
        0
      ]
    }
  ],
  "textures": [
    {
      "sampler": 0,
      "source": 0
    },
    {
      "sampler": 0,
      "source": 1
    },
    {
      "sampler": 0,
      "source": 2
    }
  ]
}
