{
  "accessors": [
    {
      "bufferView": 2,
      "componentType": 5126,
      "count": 1430,
      "max": [
        0.8109363913536072,
        0.8109363913536072,
        2.064504861831665
      ],
      "min": [
        -0.8109363317489624,
        -0.8109363913536072,
        -0.39410266280174255
      ],
      "type": "VEC3"
    },
    {
      "bufferView": 2,
      "byteOffset": 17160,
      "componentType": 5126,
      "count": 1430,
      "max": [
        0.9999194145202637,
        0.9999110698699951,
        0.9985058307647705
      ],
      "min": [
        -0.9999110698699951,
        -0.9999110698699951,
        -1.0
      ],
      "type": "VEC3"
    },
    {
      "bufferView": 1,
      "componentType": 5126,
      "count": 1430,
      "max": [
        0.8750002384185791,
        1.000000238418579
      ],
      "min": [
        0.1250000298023224,
        0.0
      ],
      "type": "VEC2"
    },
    {
      "bufferView": 0,
      "componentType": 5125,
      "count": 6528,
      "type": "SCALAR"
    },
    {
      "bufferView": 2,
      "byteOffset": 34320,
      "componentType": 5126,
      "count": 1105,
      "max": [
        2.069753646850586,
        3.2076361179351807,
        0.2792401909828186
      ],
      "min": [
        -1.7668179273605347,
        -1.1076799631118774,
        -2.9062650203704834
      ],
      "type": "VEC3"
    },
    {
      "bufferView": 2,
      "byteOffset": 47580,
      "componentType": 5126,
      "count": 1105,
      "max": [
        0.9956730604171753,
        0.9785935282707214,
        0.9932462573051453
      ],
      "min": [
        -0.9959036111831665,
        -0.979899525642395,
        -0.9958853721618652
      ],
      "type": "VEC3"
    },
    {
      "bufferView": 1,
      "byteOffset": 11440,
      "componentType": 5126,
      "count": 1105,
      "max": [
        1.0,
        1.0
      ],
      "min": [
        0.0,
        0.0
      ],
      "type": "VEC2"
    },
    {
      "bufferView": 0,
      "byteOffset": 26112,
      "componentType": 5125,
      "count": 6048,
      "type": "SCALAR"
    },
    {
      "bufferView": 2,
      "byteOffset": 60840,
      "componentType": 5126,
      "count": 65532,
      "max": [
        0.27279531955718994,
        0.37087947130203247,
        0.21343809366226196
      ],
      "min": [
        -0.2702659070491791,
        -0.42312777042388916,
        -0.070130854845047
      ],
      "type": "VEC3"
    },
    {
      "bufferView": 2,
      "byteOffset": 847224,
      "componentType": 5126,
      "count": 65532,
      "max": [
        0.9999455809593201,
        0.9976308345794678,
        0.9999895095825195
      ],
      "min": [
        -0.999880313873291,
        -0.9979003071784973,
        -0.9999176263809204
      ],
      "type": "VEC3"
    },
    {
      "bufferView": 0,
      "byteOffset": 50304,
      "componentType": 5125,
      "count": 98298,
      "type": "SCALAR"
    },
    {
      "bufferView": 2,
      "byteOffset": 1633608,
      "componentType": 5126,
      "count": 65532,
      "max": [
        0.28128957748413086,
        0.35758525133132935,
        0.20337529480457306
      ],
      "min": [
        -0.2409168779850006,
        -0.42312777042388916,
        -0.061524685472249985
      ],
      "type": "VEC3"
    },
    {
      "bufferView": 2,
      "byteOffset": 2419992,
      "componentType": 5126,
      "count": 65532,
      "max": [
        0.9997368454933167,
        0.9672685861587524,
        0.9995951056480408
      ],
      "min": [
        -0.999874472618103,
        -0.9999988675117493,
        -0.9999709129333496
      ],
      "type": "VEC3"
    },
    {
      "bufferView": 0,
      "byteOffset": 443496,
      "componentType": 5125,
      "count": 98298,
      "type": "SCALAR"
    },
    {
      "bufferView": 2,
      "byteOffset": 3206376,
      "componentType": 5126,
      "count": 65532,
      "max": [
        0.2799127399921417,
        0.36218374967575073,
        0.19533926248550415
      ],
      "min": [
        -0.24239781498908997,
        -0.4176729917526245,
        -0.053420454263687134
      ],
      "type": "VEC3"
    },
    {
      "bufferView": 2,
      "byteOffset": 3992760,
      "componentType": 5126,
      "count": 65532,
      "max": [
        0.8029618263244629,
        0.9987205862998962,
        0.994822084903717
      ],
      "min": [
        -0.9896653890609741,
        -0.8836402893066406,
        -0.9956697225570679
      ],
      "type": "VEC3"
    },
    {
      "bufferView": 0,
      "byteOffset": 836688,
      "componentType": 5125,
      "count": 98298,
      "type": "SCALAR"
    },
    {
      "bufferView": 2,
      "byteOffset": 4779144,
      "componentType": 5126,
      "count": 65532,
      "max": [
        0.2318597286939621,
        0.3692622184753418,
        0.205146923661232
      ],
      "min": [
        -0.26652759313583374,
        -0.4170428514480591,
        -0.05922521650791168
      ],
      "type": "VEC3"
    },
    {
      "bufferView": 2,
      "byteOffset": 5565528,
      "componentType": 5126,
      "count": 65532,
      "max": [
        0.9883032441139221,
        0.9794062972068787,
        0.9975492358207703
      ],
      "min": [
        -0.9929110407829285,
        -0.9714217782020569,
        -0.9967872500419617
      ],
      "type": "VEC3"
    },
    {
      "bufferView": 0,
      "byteOffset": 1229880,
      "componentType": 5125,
      "count": 98298,
      "type": "SCALAR"
    },
    {
      "bufferView": 2,
      "byteOffset": 6351912,
      "componentType": 5126,
      "count": 65532,
      "max": [
        0.27697649598121643,
        0.36742350459098816,
        0.2140163630247116
      ],
      "min": [
        -0.2703419029712677,
        -0.4176729917526245,
        -0.06437044590711594
      ],
      "type": "VEC3"
    },
    {
      "bufferView": 2,
      "byteOffset": 7138296,
      "componentType": 5126,
      "count": 65532,
      "max": [
        0.9489061832427979,
        0.9926382303237915,
        0.9996479749679565
      ],
      "min": [
        -0.9968093037605286,
        -0.9980062246322632,
        -0.9929847121238708
      ],
      "type": "VEC3"
    },
    {
      "bufferView": 0,
      "byteOffset": 1623072,
      "componentType": 5125,
      "count": 98298,
      "type": "SCALAR"
    },
    {
      "bufferView": 2,
      "byteOffset": 7924680,
      "componentType": 5126,
      "count": 56852,
      "max": [
        0.03837418183684349,
        0.36714357137680054,
        0.21204303205013275
      ],
      "min": [
        -0.2729194760322571,
        -0.4186672568321228,
        -0.06264536082744598
      ],
      "type": "VEC3"
    },
    {
      "bufferView": 2,
      "byteOffset": 8606904,
      "componentType": 5126,
      "count": 56852,
      "max": [
        0.991527259349823,
        0.9997979998588562,
        0.9997916221618652
      ],
      "min": [
        -0.9994914531707764,
        -0.998551607131958,
        -0.9998617172241211
      ],
      "type": "VEC3"
    },
    {
      "bufferView": 0,
      "byteOffset": 2016264,
      "componentType": 5125,
      "count": 85278,
      "type": "SCALAR"
    }
  ],
  "asset": {
    "extras": {
      "author": "aniljaco (https://sketchfab.com/aniljaco)",
      "license": "CC-BY-4.0 (http://creativecommons.org/licenses/by/4.0/)",
      "source": "https://sketchfab.com/3d-models/money-bag-anil-f742275b6b1842b0af59c3950d422081",
      "title": "Money bag -  Anil"
    },
    "generator": "Sketchfab-12.66.0",
    "version": "2.0"
  },
  "bufferViews": [
    {
      "buffer": 0,
      "byteLength": 2357376,
      "name": "floatBufferViews",
      "target": 34963
    },
    {
      "buffer": 0,
      "byteLength": 20280,
      "byteOffset": 2357376,
      "byteStride": 8,
      "name": "floatBufferViews",
      "target": 34962
    },
    {
      "buffer": 0,
      "byteLength": 9289128,
      "byteOffset": 2377656,
      "byteStride": 12,
      "name": "floatBufferViews",
      "target": 34962
    }
  ],
  "buffers": [
    {
      "byteLength": 11666784,
      "uri": "scene.bin"
    }
  ],
  "materials": [
    {
      "doubleSided": true,
      "name": "material",
      "pbrMetallicRoughness": {
        "baseColorFactor": [
          0.7586322372514738,
          0.1742601444301148,
          0.3482780982773194,
          1.0
        ],
        "metallicFactor": 0.0,
        "roughnessFactor": 0.9463955572939818
      }
    },
    {
      "doubleSided": true,
      "name": "Rope",
      "pbrMetallicRoughness": {
        "baseColorFactor": [
          0.0852948,
          0.0,
          0.000200774,
          1.0
        ],
        "metallicFactor": 0.0,
        "roughnessFactor": 0.9959419457401533
      }
    },
    {
      "doubleSided": true,
      "name": "material_2",
      "pbrMetallicRoughness": {
        "baseColorFactor": [
          0.7163916225202307,
          0.509670589692871,
          0.509670589692871,
          1.0
        ],
        "metallicFactor": 0.0,
        "roughnessFactor": 0.8211145618000169
      }
    }
  ],
  "meshes": [
    {
      "name": "Cube_Bag_0",
      "primitives": [
        {
          "attributes": {
            "NORMAL": 1,
            "POSITION": 0,
            "TEXCOORD_0": 2
          },
          "indices": 3,
          "material": 0,
          "mode": 4
        }
      ]
    },
    {
      "name": "BezierCurve.001_Rope_0",
      "primitives": [
        {
          "attributes": {
            "NORMAL": 5,
            "POSITION": 4,
            "TEXCOORD_0": 6
          },
          "indices": 7,
          "material": 1,
          "mode": 4
        }
      ]
    },
    {
      "name": "Text_Dol_0",
      "primitives": [
        {
          "attributes": {
            "NORMAL": 9,
            "POSITION": 8
          },
          "indices": 10,
          "material": 2,
          "mode": 4
        }
      ]
    },
    {
      "name": "Text_Dol_0",
      "primitives": [
        {
          "attributes": {
            "NORMAL": 12,
            "POSITION": 11
          },
          "indices": 13,
          "material": 2,
          "mode": 4
        }
      ]
    },
    {
      "name": "Text_Dol_0",
      "primitives": [
        {
          "attributes": {
            "NORMAL": 15,
            "POSITION": 14
          },
          "indices": 16,
          "material": 2,
          "mode": 4
        }
      ]
    },
    {
      "name": "Text_Dol_0",
      "primitives": [
        {
          "attributes": {
            "NORMAL": 18,
            "POSITION": 17
          },
          "indices": 19,
          "material": 2,
          "mode": 4
        }
      ]
    },
    {
      "name": "Text_Dol_0",
      "primitives": [
        {
          "attributes": {
            "NORMAL": 21,
            "POSITION": 20
          },
          "indices": 22,
          "material": 2,
          "mode": 4
        }
      ]
    },
    {
      "name": "Text_Dol_0",
      "primitives": [
        {
          "attributes": {
            "NORMAL": 24,
            "POSITION": 23
          },
          "indices": 25,
          "material": 2,
          "mode": 4
        }
      ]
    }
  ],
  "nodes": [
    {
      "children": [
        1
      ],
      "matrix": [
        1.0,
        0.0,
        0.0,
        0.0,
        0.0,
        2.220446049250313e-16,
        -1.0,
        0.0,
        0.0,
        1.0,
        2.220446049250313e-16,
        0.0,
        0.0,
        0.0,
        0.0,
        1.0
      ],
      "name": "Sketchfab_model"
    },
    {
      "children": [
        2
      ],
      "matrix": [
        1.0,
        0.0,
        0.0,
        0.0,
        0.0,
        0.0,
        1.0,
        0.0,
        0.0,
        -1.0,
        0.0,
        0.0,
        0.0,
        0.0,
        0.0,
        1.0
      ],
      "name": "6895b918d790411e936254af6d26a001.fbx"
    },
    {
      "children": [
        3,
        5,
        7
      ],
      "name": "RootNode"
    },
    {
      "children": [
        4
      ],
      "matrix": [
        100.0,
        0.0,
        0.0,
        0.0,
        0.0,
        -1.629206793918314e-05,
        -99.99999999999868,
        0.0,
        0.0,
        99.99999999999868,
        -1.629206793918314e-05,
        0.0,
        0.0,
        0.0,
        0.0,
        1.0
      ],
      "name": "Cube"
    },
    {
      "mesh": 0,
      "name": "Cube_Bag_0"
    },
    {
      "children": [
        6
      ],
      "matrix": [
        20.06338882446289,
        0.0,
        0.0,
        0.0,
        -0.0,
        -3.268740938183972e-06,
        -20.063388824462624,
        0.0,
        0.0,
        20.063388824462624,
        -3.268740938183972e-06,
        0.0,
        -7.60568904876709,
        133.50430297851563,
        3.2366092205047607,
        1.0
      ],
      "name": "BezierCurve.001"
    },
    {
      "mesh": 1,
      "name": "BezierCurve.001_Rope_0"
    },
    {
      "children": [
        8,
        9,
        10,
        11,
        12,
        13
      ],
      "matrix": [
        -98.80451813968672,
        -0.539335593456839,
        -15.407021525978099,
        0.0,
        5.60558382790872e-07,
        99.93879334195714,
        -3.4984441159676978,
        0.0,
        15.416458581150266,
        -3.4566206738142284,
        -98.7440356595427,
        0.0,
        -4.026426315307617,
        53.93341827392578,
        -62.59312438964844,
        1.0
      ],
      "name": "Text"
    },
    {
      "mesh": 2,
      "name": "Text_Dol_0"
    },
    {
      "mesh": 3,
      "name": "Text_Dol_0"
    },
    {
      "mesh": 4,
      "name": "Text_Dol_0"
    },
    {
      "mesh": 5,
      "name": "Text_Dol_0"
    },
    {
      "mesh": 6,
      "name": "Text_Dol_0"
    },
    {
      "mesh": 7,
      "name": "Text_Dol_0"
    }
  ],
  "scene": 0,
  "scenes": [
    {
      "name": "Sketchfab_Scene",
      "nodes": [
        0
      ]
    }
  ]
}
