{
  "accessors": [
    {
      "bufferView": 2,
      "componentType": 5126,
      "count": 2723,
      "max": [
        39.43647384643555,
        40.60470962524414,
        24.358402252197266
      ],
      "min": [
        -39.436466217041016,
        -1.027872085571289,
        -22.015588760375977
      ],
      "type": "VEC3"
    },
    {
      "bufferView": 2,
      "byteOffset": 32676,
      "componentType": 5126,
      "count": 2723,
      "max": [
        0.9986288547515869,
        1.0,
        1.0
      ],
      "min": [
        -0.9986939430236816,
        -1.0,
        -0.999789297580719
      ],
      "type": "VEC3"
    },
    {
      "bufferView": 3,
      "componentType": 5126,
      "count": 2723,
      "max": [
        1.0,
        0.9999762177467346,
        1.0,
        1.0
      ],
      "min": [
        -1.0,
        -0.9999773502349854,
        -0.9999682903289795,
        -1.0
      ],
      "type": "VEC4"
    },
    {
      "bufferView": 1,
      "componentType": 5126,
      "count": 2723,
      "max": [
        1.9954559803009033,
        1.8579134941101074
      ],
      "min": [
        0.005709808319807053,
        0.008310943841934204
      ],
      "type": "VEC2"
    },
    {
      "bufferView": 0,
      "componentType": 5125,
      "count": 9984,
      "type": "SCALAR"
    },
    {
      "bufferView": 2,
      "byteOffset": 65352,
      "componentType": 5126,
      "count": 4,
      "max": [
        0.1451263427734375,
        0.33218687772750854,
        200.04635620117188
      ],
      "min": [
        -199.85487365722656,
        0.33218687772750854,
        0.04636383056640625
      ],
      "type": "VEC3"
    },
    {
      "bufferView": 2,
      "byteOffset": 65400,
      "componentType": 5126,
      "count": 4,
      "max": [
        0.0,
        1.0,
        0.0
      ],
      "min": [
        0.0,
        1.0,
        0.0
      ],
      "type": "VEC3"
    },
    {
      "bufferView": 3,
      "byteOffset": 43568,
      "componentType": 5126,
      "count": 4,
      "max": [
        1.0,
        0.0,
        0.0,
        1.0
      ],
      "min": [
        1.0,
        0.0,
        0.0,
        1.0
      ],
      "type": "VEC4"
    },
    {
      "bufferView": 1,
      "byteOffset": 21784,
      "componentType": 5126,
      "count": 4,
      "max": [
        1.0,
        1.0
      ],
      "min": [
        1.1052218244672119e-16,
        1.6603333367797902e-16
      ],
      "type": "VEC2"
    },
    {
      "bufferView": 0,
      "byteOffset": 39936,
      "componentType": 5125,
      "count": 6,
      "type": "SCALAR"
    }
  ],
  "asset": {
    "extras": {
      "author": "DudleyLong (https://sketchfab.com/DudleyLong)",
      "license": "CC-BY-4.0 (http://creativecommons.org/licenses/by/4.0/)",
      "source": "https://sketchfab.com/3d-models/chest-fe0d9a29d6084ac8be1be131157f63ad",
      "title": "Chest"
    },
    "generator": "Sketchfab-12.67.0",
    "version": "2.0"
  },
  "bufferViews": [
    {
      "buffer": 0,
      "byteLength": 39960,
      "name": "floatBufferViews",
      "target": 34963
    },
    {
      "buffer": 0,
      "byteLength": 21816,
      "byteOffset": 39960,
      "byteStride": 8,
      "name": "floatBufferViews",
      "target": 34962
    },
    {
      "buffer": 0,
      "byteLength": 65448,
      "byteOffset": 61776,
      "byteStride": 12,
      "name": "floatBufferViews",
      "target": 34962
    },
    {
      "buffer": 0,
      "byteLength": 43632,
      "byteOffset": 127224,
      "byteStride": 16,
      "name": "floatBufferViews",
      "target": 34962
    }
  ],
  "buffers": [
    {
      "byteLength": 170856,
      "uri": "scene.bin"
    }
  ],
  "images": [
    {
      "uri": "textures/Chest_Mat_baseColor.jpeg"
    },
    {
      "uri": "textures/Chest_Mat_metallicRoughness.png"
    },
    {
      "uri": "textures/Chest_Mat_normal.png"
    },
    {
      "uri": "textures/Floor_Mat1_baseColor.jpeg"
    },
    {
      "uri": "textures/Floor_Mat1_metallicRoughness.png"
    },
    {
      "uri": "textures/Floor_Mat1_normal.png"
    }
  ],
  "materials": [
    {
      "doubleSided": true,
      "name": "Chest_Mat",
      "normalTexture": {
        "index": 2
      },
      "occlusionTexture": {
        "index": 1
      },
      "pbrMetallicRoughness": {
        "baseColorTexture": {
          "index": 0
        },
        "metallicRoughnessTexture": {
          "index": 1
        }
      }
    },
    {
      "doubleSided": true,
      "name": "Floor_Mat1",
      "normalTexture": {
        "index": 5
      },
      "occlusionTexture": {
        "index": 4
      },
      "pbrMetallicRoughness": {
        "baseColorTexture": {
          "index": 3
        },
        "metallicRoughnessTexture": {
          "index": 4
        }
      }
    }
  ],
  "meshes": [
    {
      "name": "TheChest_Chest_Mat_0",
      "primitives": [
        {
          "attributes": {
            "NORMAL": 1,
            "POSITION": 0,
            "TANGENT": 2,
            "TEXCOORD_0": 3
          },
          "indices": 4,
          "material": 0,
          "mode": 4
        }
      ]
    },
    {
      "name": "StoneFloor_Floor_Mat1_0",
      "primitives": [
        {
          "attributes": {
            "NORMAL": 6,
            "POSITION": 5,
            "TANGENT": 7,
            "TEXCOORD_0": 8
          },
          "indices": 9,
          "material": 1,
          "mode": 4
        }
      ]
    }
  ],
  "nodes": [
    {
      "children": [
        1
      ],
      "matrix": [
        1.0,
        0.0,
        0.0,
        0.0,
        0.0,
        2.220446049250313e-16,
        -1.0,
        0.0,
        0.0,
        1.0,
        2.220446049250313e-16,
        0.0,
        0.0,
        0.0,
        0.0,
        1.0
      ],
      "name": "Sketchfab_model"
    },
    {
      "children": [
        2
      ],
      "matrix": [
        1.0,
        0.0,
        0.0,
        0.0,
        0.0,
        0.0,
        1.0,
        0.0,
        0.0,
        -1.0,
        0.0,
        0.0,
        0.0,
        0.0,
        0.0,
        1.0
      ],
      "name": "53b1410e41204a95bb67c66b6b64ca9b.fbx"
    },
    {
      "children": [
        3,
        5
      ],
      "name": "RootNode"
    },
    {
      "children": [
        4
      ],
      "matrix": [
        1.0,
        0.0,
        0.0,
        0.0,
        0.0,
        1.0,
        0.0,
        0.0,
        0.0,
        0.0,
        1.0,
        0.0,
        0.0,
        1.153769850730896,
        0.0,
        1.0
      ],
      "name": "TheChest"
    },
    {
      "mesh": 0,
      "name": "TheChest_Chest_Mat_0"
    },
    {
      "children": [
        6
      ],
      "name": "Parts_Base"
    },
    {
      "children": [
        7
      ],
      "matrix": [
        1.0,
        0.0,
        0.0,
        0.0,
        0.0,
        1.0,
        0.0,
        0.0,
        0.0,
        0.0,
        1.0,
        0.0,
        99.83889770507813,
        0.0,
        -100.04563903808594,
        1.0
      ],
      "name": "StoneFloor"
    },
    {
      "mesh": 1,
      "name": "StoneFloor_Floor_Mat1_0"
    }
  ],
  "samplers": [
    {
      "magFilter": 9729,
      "minFilter": 9987,
      "wrapS": 10497,
      "wrapT": 10497
    }
  ],
  "scene": 0,
  "scenes": [
    {
      "name": "Sketchfab_Scene",
      "nodes": [
        0
      ]
    }
  ],
  "textures": [
    {
      "sampler": 0,
      "source": 0
    },
    {
      "sampler": 0,
      "source": 1
    },
    {
      "sampler": 0,
      "source": 2
    },
    {
      "sampler": 0,
      "source": 3
    },
    {
      "sampler": 0,
      "source": 4
    },
    {
      "sampler": 0,
      "source": 5
    }
  ]
}
